<svg width="9" height="9" viewBox="0 0 9 9" fill="none" xmlns="http://www.w3.org/2000/svg">
<g clip-path="url(#clip0_191_4690)">
<path d="M3.05343 0.321426L1.44629 1.92857L3.05343 3.53571" stroke="white" stroke-linecap="round" stroke-linejoin="round"/>
<path d="M1.125 5.30357C1.125 5.97108 1.32294 6.62362 1.69379 7.1786C2.06464 7.73364 2.59174 8.16622 3.20844 8.42169C3.82514 8.67709 4.50374 8.74395 5.15843 8.61371C5.81311 8.48353 6.41449 8.16204 6.88648 7.69005C7.35846 7.21807 7.67996 6.61667 7.81014 5.962C7.94038 5.30732 7.87352 4.62872 7.61811 4.01202C7.36264 3.39532 6.93006 2.86821 6.37505 2.49736C5.82004 2.12652 5.16751 1.92857 4.5 1.92857H1.44643" stroke="white" stroke-linecap="round" stroke-linejoin="round"/>
</g>
<defs>
<clipPath id="clip0_191_4690">
<rect width="9" height="9" fill="white"/>
</clipPath>
</defs>
</svg>
