<svg width="13" height="13" viewBox="0 0 13 13" fill="none" xmlns="http://www.w3.org/2000/svg">
<path d="M5.49113 9.88504L7.33405 11.7195C7.44712 11.8353 7.58849 11.9197 7.74418 11.9642C7.89986 12.0087 8.06446 12.0118 8.2217 11.9731C8.37991 11.9363 8.526 11.8595 8.64592 11.7499C8.76584 11.6403 8.85556 11.5018 8.90645 11.3475L11.9329 2.27664C11.9961 2.10668 12.0091 1.92216 11.9704 1.74501C11.9318 1.56785 11.8431 1.40553 11.7149 1.27732C11.5867 1.14911 11.4243 1.06041 11.2472 1.02176C11.07 0.983111 10.8855 0.996142 10.7156 1.0593L1.64468 4.08575C1.48511 4.14025 1.34299 4.23638 1.23302 4.36419C1.12304 4.492 1.04919 4.64686 1.0191 4.81277C0.988036 4.96366 0.99495 5.11991 1.03922 5.26747C1.08349 5.41502 1.16372 5.54927 1.27271 5.65814L3.58904 7.97447L3.51295 10.908L5.49113 9.88504Z" stroke="#F86A06" stroke-width="0.9" stroke-linecap="round" stroke-linejoin="round"/>
<path d="M11.6622 1.24524L3.58887 7.97443" stroke="#F86A06" stroke-width="0.9" stroke-linecap="round" stroke-linejoin="round"/>
</svg>
