<svg width="25" height="25" viewBox="0 0 25 25" fill="none" xmlns="http://www.w3.org/2000/svg">
<g clip-path="url(#clip0_191_4642)">
<path d="M12.5031 12.9464C12.2565 12.9464 12.0566 12.7466 12.0566 12.5C12.0566 12.2535 12.2565 12.0536 12.5031 12.0536" stroke="white" stroke-width="1.5" stroke-linecap="round" stroke-linejoin="round"/>
<path d="M12.5029 12.9464C12.7495 12.9464 12.9494 12.7466 12.9494 12.5C12.9494 12.2535 12.7495 12.0536 12.5029 12.0536" stroke="white" stroke-width="1.5" stroke-linecap="round" stroke-linejoin="round"/>
<path d="M7.59194 12.9464C7.34538 12.9464 7.14551 12.7466 7.14551 12.5C7.14551 12.2535 7.34538 12.0536 7.59194 12.0536" stroke="white" stroke-width="1.5" stroke-linecap="round" stroke-linejoin="round"/>
<path d="M7.5918 12.9464C7.83835 12.9464 8.03823 12.7466 8.03823 12.5C8.03823 12.2535 7.83835 12.0536 7.5918 12.0536" stroke="white" stroke-width="1.5" stroke-linecap="round" stroke-linejoin="round"/>
<path d="M17.4142 12.9464C17.1676 12.9464 16.9678 12.7466 16.9678 12.5C16.9678 12.2535 17.1676 12.0536 17.4142 12.0536" stroke="white" stroke-width="1.5" stroke-linecap="round" stroke-linejoin="round"/>
<path d="M17.4141 12.9464C17.6606 12.9464 17.8606 12.7466 17.8606 12.5C17.8606 12.2535 17.6606 12.0536 17.4141 12.0536" stroke="white" stroke-width="1.5" stroke-linecap="round" stroke-linejoin="round"/>
<path d="M12.4963 1.00098C10.4162 1.00163 8.37531 1.56646 6.59088 2.6353C4.80647 3.70416 3.34538 5.237 2.36324 7.07057C1.3811 8.90414 0.914685 10.9698 1.01368 13.0475C1.11268 15.1252 1.77337 17.1371 2.9254 18.8689L0.99707 23.9995L7.45431 22.8318C9.00921 23.5916 10.7155 23.9907 12.4461 23.9993C14.1767 24.0079 15.8869 23.6257 17.4492 22.8813C19.0115 22.137 20.3858 21.0495 21.4692 19.7C22.5528 18.3507 23.318 16.7741 23.7073 15.0879C24.0967 13.4017 24.1007 11.6493 23.7185 9.96139C23.3364 8.27348 22.5783 6.69359 21.5007 5.33948C20.423 3.98536 19.0535 2.89196 17.4945 2.14077C15.9354 1.38957 14.2269 0.999957 12.4963 1.00098Z" stroke="white" stroke-width="1.5" stroke-linecap="round" stroke-linejoin="round"/>
</g>
<defs>
<clipPath id="clip0_191_4642">
<rect width="25" height="25" fill="white"/>
</clipPath>
</defs>
</svg>
